<svg xmlns="http://www.w3.org/2000/svg" viewBox="0 0 188.11 184.3"><defs><style>.cls-1{fill:#f3f5f9;}</style></defs><title>Fichier 4</title><g id="Calque_2" data-name="Calque 2"><g id="Layer_1" data-name="Layer 1"><path class="cls-1" d="M94.05,184.3a86.2,86.2,0,0,1-46.73-13.7,3.74,3.74,0,1,1,4-6.3,79.08,79.08,0,0,0,85.37,0,3.74,3.74,0,0,1,4,6.3A86.26,86.26,0,0,1,94.05,184.3Z"/><path class="cls-1" d="M16.28,73.1A3.62,3.62,0,0,1,15,72.87a3.74,3.74,0,0,1-2.23-4.8A86.27,86.27,0,0,1,90.21,11.33a3.74,3.74,0,1,1,.32,7.48A78.81,78.81,0,0,0,19.79,70.64,3.74,3.74,0,0,1,16.28,73.1Z"/><path class="cls-1" d="M42.46,166.26a3.67,3.67,0,0,1-2.33-.82,86.71,86.71,0,0,1-29.8-89.61,3.75,3.75,0,1,1,7.25,1.89A79.21,79.21,0,0,0,44.8,159.59a3.74,3.74,0,0,1-2.34,6.67Z"/><path class="cls-1" d="M145.64,166.26a3.74,3.74,0,0,1-2.33-6.67,79.15,79.15,0,0,0,27.21-81.87,3.75,3.75,0,1,1,7.25-1.89A86.66,86.66,0,0,1,148,165.45,3.74,3.74,0,0,1,145.64,166.26Z"/><path class="cls-1" d="M171.83,73.11a3.75,3.75,0,0,1-3.52-2.46A78.79,78.79,0,0,0,97.57,18.81a3.74,3.74,0,1,1,.33-7.48,86.27,86.27,0,0,1,77.45,56.75,3.74,3.74,0,0,1-2.24,4.8A3.57,3.57,0,0,1,171.83,73.11Z"/><path class="cls-1" d="M149.87,179.27a3.74,3.74,0,0,1-2.21-.72l-53.61-39-53.61,39a3.74,3.74,0,0,1-5.76-4.19l20.48-63L1.54,72.39a3.75,3.75,0,0,1,2.21-6.78H70l20.48-63a3.74,3.74,0,0,1,7.12,0l20.48,63h66.27a3.75,3.75,0,0,1,2.2,6.78l-53.61,39,20.48,63a3.75,3.75,0,0,1-3.56,4.91ZM61.53,116,45.37,165.71,87.68,135Zm38.9,19,42.31,30.74L126.58,116ZM64,108.48l30.09,21.86,30.09-21.86L112.65,73.1H75.46ZM120.53,73.1l10,30.75L172.83,73.1Zm-105.26,0,42.32,30.75,10-30.75Zm62.62-7.49h32.33L94.05,15.87Z"/></g></g></svg>