<svg xmlns="http://www.w3.org/2000/svg" viewBox="0 0 105.45 297.19"><defs><style>.cls-1{fill:#f3f5f9;}</style></defs><title>Fichier 5</title><g id="Calque_2" data-name="Calque 2"><g id="Layer_1" data-name="Layer 1"><path class="cls-1" d="M29.37,110.69a3.88,3.88,0,0,1-1.41-.27,3.75,3.75,0,0,1-2.06-4.89l8.8-21.61a3.75,3.75,0,0,1,6.94,2.82l-8.8,21.62A3.74,3.74,0,0,1,29.37,110.69Z"/><path class="cls-1" d="M52.73,91.43h-.21c-.8,0-19.59-1.15-30.12-6.7-6.52-3.43-9.34,1.13-9.64,1.66a3.75,3.75,0,0,1-6.53-3.67C8,79.5,15.09,72.42,25.89,78.1c9.1,4.79,26.87,5.84,27.05,5.84a3.75,3.75,0,0,1-.21,7.49Z"/><path class="cls-1" d="M10.78,95.76a10.91,10.91,0,0,1-5.5-1.42C3.27,93.18-.09,90.25,0,83.63A13.28,13.28,0,0,1,5.11,72.88c7.49-5.76,20.1-3.43,25.17-2.16C40,73.14,46.55,69.2,46.82,69a3.75,3.75,0,0,1,4,6.35c-.38.24-9.44,5.83-22.35,2.6a40.11,40.11,0,0,0-10.81-1.3,3.56,3.56,0,0,1,1,.81c2.64,3.06,3.8,6.53,3.28,9.77A9.62,9.62,0,0,1,17.18,94,12.7,12.7,0,0,1,10.78,95.76Zm2.4-18.51a9.69,9.69,0,0,0-3.5,1.57,5.81,5.81,0,0,0-2.19,4.92c0,1.46.23,3.36,1.53,4.11a4.69,4.69,0,0,0,4.31-.24,2.25,2.25,0,0,0,1.18-1.54c.17-1-.4-2.35-1.56-3.69A3.76,3.76,0,0,1,13.18,77.25Z"/><path class="cls-1" d="M52.73,91.43c-5.87,0-10.63-5.49-10.63-12.24s4.76-12.25,10.63-12.25a3.75,3.75,0,0,1,0,7.5c-1.49,0-3.14,2-3.14,4.75s1.65,4.75,3.14,4.75a3.75,3.75,0,0,1,0,7.49Z"/><path class="cls-1" d="M42.24,78.38A3.75,3.75,0,0,1,38.51,75c-.09-1-2-24.24,2.85-35.45a3.74,3.74,0,0,1,5.27-1.76A10.76,10.76,0,0,0,52.24,39a3.75,3.75,0,0,1,1,7.43,15.85,15.85,0,0,1-6.11-.5C45,54.68,45.5,68.91,46,74.31a3.74,3.74,0,0,1-3.4,4Z"/><path class="cls-1" d="M44.8,44.76a3.75,3.75,0,0,1-3.45-2.28c-.28-.66-1.61-4.09-.31-7.07a6,6,0,0,1,3.52-3.27,22.35,22.35,0,0,1,8.53-.87,3.75,3.75,0,0,1-.72,7.46,17.18,17.18,0,0,0-4.31.19,3.93,3.93,0,0,0,.18.63,3.74,3.74,0,0,1-2,4.91A3.64,3.64,0,0,1,44.8,44.76Z"/><path class="cls-1" d="M46.41,39.21A3.74,3.74,0,0,1,42.71,36c-.43-3.18-1.79-13.77-1.36-16.79a8.66,8.66,0,0,1,4.94-6.65l2.94,6.89.13-.06a1.17,1.17,0,0,0-.6.88C48.58,21.7,49.33,29,50.13,35a3.74,3.74,0,0,1-3.21,4.21A4.36,4.36,0,0,1,46.41,39.21Z"/><path class="cls-1" d="M52.73,21.74A10.87,10.87,0,1,1,52.73,0a3.75,3.75,0,0,1,0,7.49,3.38,3.38,0,1,0,0,6.76,3.75,3.75,0,0,1,0,7.49Z"/><path class="cls-1" d="M52.72,297.19A3.74,3.74,0,0,1,49,293.91L25.65,107.41a3.75,3.75,0,0,1,7.44-.93L56.44,293a3.75,3.75,0,0,1-3.25,4.19A3.7,3.7,0,0,1,52.72,297.19Z"/><path class="cls-1" d="M47.69,255.09a1.77,1.77,0,0,1-.5-.07,1.88,1.88,0,0,1-1.31-2.3l5-18.09V114.33l-21.94-5.57a1.87,1.87,0,1,1,.92-3.63l23.36,5.93a1.86,1.86,0,0,1,1.41,1.81v122a1.68,1.68,0,0,1-.07.5l-5,18.33A1.87,1.87,0,0,1,47.69,255.09Z"/><path class="cls-1" d="M76.08,110.69a3.76,3.76,0,0,1-3.47-2.33L63.82,86.74a3.74,3.74,0,1,1,6.93-2.82l8.8,21.61a3.76,3.76,0,0,1-2,4.89A4,4,0,0,1,76.08,110.69Z"/><path class="cls-1" d="M52.72,91.43a3.75,3.75,0,0,1-.2-7.49c.17,0,18-1.06,27-5.84,10.79-5.69,17.84,1.4,19.65,4.61a3.75,3.75,0,1,1-6.53,3.67c-.7-1.17-3.54-4.87-9.63-1.66-10.54,5.55-29.33,6.66-30.12,6.7Z"/><path class="cls-1" d="M94.67,95.76A12.66,12.66,0,0,1,88.28,94a9.62,9.62,0,0,1-4.73-6.77c-.53-3.24.64-6.71,3.27-9.77a3.46,3.46,0,0,1,1-.81A40.18,40.18,0,0,0,77,78c-12.91,3.23-22-2.36-22.34-2.6a3.75,3.75,0,0,1,4-6.35c.33.2,6.91,4.1,16.54,1.69,5.08-1.27,17.68-3.6,25.17,2.16a13.28,13.28,0,0,1,5.11,10.75c.1,6.62-3.27,9.55-5.28,10.71A10.91,10.91,0,0,1,94.67,95.76ZM92.28,77.25a3.76,3.76,0,0,1,.22,5.13,5.06,5.06,0,0,0-1.56,3.69,2.24,2.24,0,0,0,1.19,1.54,4.67,4.67,0,0,0,4.3.24C97.73,87.1,98,85.2,98,83.74a5.81,5.81,0,0,0-2.19-4.92A9.72,9.72,0,0,0,92.28,77.25Z"/><path class="cls-1" d="M52.73,91.43a3.75,3.75,0,1,1,0-7.49c1.48,0,3.14-2,3.14-4.75s-1.66-4.75-3.14-4.75a3.75,3.75,0,1,1,0-7.5c5.86,0,10.63,5.5,10.63,12.25S58.59,91.43,52.73,91.43Z"/><path class="cls-1" d="M63.22,78.38l-.34,0a3.74,3.74,0,0,1-3.4-4c.47-5.4,1-19.64-1.14-28.38a15.82,15.82,0,0,1-6.1.5,3.75,3.75,0,1,1,1-7.43,10.77,10.77,0,0,0,5.62-1.26,3.77,3.77,0,0,1,5.25,1.77C69,50.72,67,74,66.94,75A3.74,3.74,0,0,1,63.22,78.38Z"/><path class="cls-1" d="M60.66,44.76a3.65,3.65,0,0,1-1.47-.3,3.74,3.74,0,0,1-2-4.91,4.7,4.7,0,0,0,.19-.63,17.55,17.55,0,0,0-4.31-.19,3.75,3.75,0,0,1-.73-7.46,22.34,22.34,0,0,1,8.53.87,6,6,0,0,1,3.52,3.27c1.3,3,0,6.41-.31,7.07A3.74,3.74,0,0,1,60.66,44.76Z"/><path class="cls-1" d="M59,39.21a4.36,4.36,0,0,1-.51,0A3.76,3.76,0,0,1,55.32,35c.8-5.95,1.55-13.27,1.37-14.74a1.3,1.3,0,0,0-.47-.81,3.75,3.75,0,1,1,3-6.89,8.68,8.68,0,0,1,4.93,6.65c.44,3-.93,13.61-1.35,16.79A3.74,3.74,0,0,1,59,39.21Z"/><path class="cls-1" d="M52.73,21.74a3.75,3.75,0,1,1,0-7.49,3.38,3.38,0,1,0,0-6.76,3.75,3.75,0,1,1,0-7.49,10.87,10.87,0,1,1,0,21.74Z"/><path class="cls-1" d="M52.73,297.19A3.68,3.68,0,0,1,49,293l23.36-186.5a3.74,3.74,0,1,1,7.43.93L56.44,293.91A3.73,3.73,0,0,1,52.73,297.19Z"/><path class="cls-1" d="M57.76,255.09a1.88,1.88,0,0,1-1.8-1.38l-5-18.33a2.08,2.08,0,0,1-.07-.5v-122a1.87,1.87,0,0,1,1.42-1.81l23.35-5.93a1.87,1.87,0,1,1,.92,3.63L54.6,114.33v120.3l5,18.09a1.87,1.87,0,0,1-1.31,2.3A1.73,1.73,0,0,1,57.76,255.09Z"/></g></g></svg>