<svg xmlns="http://www.w3.org/2000/svg" viewBox="0 0 154.46 212.14"><defs><style>.cls-1{fill:#f3f5f9;}</style></defs><title>Fichier 2</title><g id="Calque_2" data-name="Calque 2"><g id="Layer_1" data-name="Layer 1"><path class="cls-1" d="M77,54.1c-37.32,0-77-9.48-77-27S39.67,0,77,0s77,9.48,77,27.05S114.31,54.1,77,54.1ZM77,7.49c-43.06,0-69.5,11.39-69.5,19.56S33.93,46.61,77,46.61s69.5-11.39,69.5-19.56S120.05,7.49,77,7.49Z"/><path class="cls-1" d="M77,132.34a3.75,3.75,0,0,1-.8-7.41h0a107,107,0,0,0,38.15-18.72c24.32-18.9,35.14-45.42,32.16-78.83a3.74,3.74,0,0,1,7.46-.66c4,45.11-17,71.44-35.25,85.59a112.69,112.69,0,0,1-40.93,19.94A3.55,3.55,0,0,1,77,132.34Z"/><path class="cls-1" d="M77,149.81a3.74,3.74,0,0,1-.41-7.46c1.12-.13,26.18-3.36,26.15-26.2a3.75,3.75,0,0,1,3.75-3.75h0a3.75,3.75,0,0,1,3.75,3.74c0,23.69-21.45,32.37-32.81,33.65A3.1,3.1,0,0,1,77,149.81Z"/><path class="cls-1" d="M77.48,132.34a3.61,3.61,0,0,1-.79-.09,112.69,112.69,0,0,1-40.93-19.94C17.46,98.16-3.51,71.83.51,26.72A3.74,3.74,0,0,1,8,27.38c-3,33.51,7.9,60.09,32.37,79a106.63,106.63,0,0,0,37.93,18.55,3.75,3.75,0,0,1-.79,7.41Z"/><path class="cls-1" d="M77.49,149.81a3.1,3.1,0,0,1-.43,0c-11.36-1.28-32.83-10-32.81-33.65A3.75,3.75,0,0,1,48,112.4h0a3.75,3.75,0,0,1,3.74,3.75c0,23,25.08,26.08,26.15,26.2a3.74,3.74,0,0,1-.41,7.46Z"/><path class="cls-1" d="M77.23,188.83c-4.15,0-14.19-.56-17.61-5.74A3.69,3.69,0,0,1,59,181V141.09a3.75,3.75,0,1,1,7.49,0v38.35c1.46.84,5.14,1.9,10.74,1.9s9.29-1.06,10.75-1.9V141.09a3.75,3.75,0,0,1,7.5,0V181a3.7,3.7,0,0,1-.63,2.06C91.43,188.27,81.39,188.83,77.23,188.83Z"/><path class="cls-1" d="M77.48,195.9c-11.08,0-22.6-4.69-24.64-10a9,9,0,0,1,.22-7.62c2.48-4.76,8.95-6.45,9.22-6.52a1.87,1.87,0,0,1,.93,3.63h0c-.06,0-5.14,1.36-6.83,4.63a5.35,5.35,0,0,0,0,4.54c1.17,3.08,10.57,7.64,21.14,7.64s19.49-4.6,20.65-7.64a5.33,5.33,0,0,0,0-4.55c-1.68-3.24-6.76-4.61-6.81-4.62a1.87,1.87,0,1,1,.92-3.63c.27.07,6.74,1.76,9.22,6.52a9,9,0,0,1,.22,7.62C99.55,191.3,88.5,195.9,77.48,195.9Z"/><path class="cls-1" d="M77.24,212.14h0c-24,0-48.34-8.77-54.17-19.55a13.77,13.77,0,0,1,.55-14.07c5.72-9.6,21.08-15.8,39.13-15.8a3.75,3.75,0,1,1,0,7.49c-17.59,0-29.09,6.1-32.7,12.15a6.41,6.41,0,0,0-.4,6.66c3.53,6.53,23.34,15.62,47.59,15.62h0c24.75,0,44.93-9.18,47.41-15.25a6.27,6.27,0,0,0-.33-5.91c-3.43-6-15.81-10.93-33.1-13.31a3.74,3.74,0,0,1,1-7.42c20.45,2.81,33.79,8.68,38.57,17a13.78,13.78,0,0,1,.78,12.49C127.17,203,102.28,212.13,77.24,212.14Z"/><path class="cls-1" d="M7.46,36.27A1.88,1.88,0,0,1,6.33,32.9c12.23-9.24,40.93-15.21,73.11-15.21,29.38,0,56.15,5,69.85,13a1.87,1.87,0,0,1-1.9,3.23c-13.16-7.73-39.19-12.53-67.95-12.53C48.5,21.43,20,27.24,8.59,35.89A1.9,1.9,0,0,1,7.46,36.27Z"/><path class="cls-1" d="M79.44,68.87c-35.79,0-67.26-7.54-76.51-18.35a1.88,1.88,0,0,1,2.85-2.44c8.45,9.88,39.43,17,73.66,17,29.47,0,56.6-5.2,69.12-13.25a1.87,1.87,0,1,1,2,3.15C137.3,63.57,110,68.87,79.44,68.87Z"/><path class="cls-1" d="M77.82,100.92A13.32,13.32,0,1,1,90.93,87.6,13.23,13.23,0,0,1,77.82,100.92Zm0-22.89a9.57,9.57,0,1,0,9.37,9.57A9.48,9.48,0,0,0,77.82,78Z"/></g></g></svg>