<svg xmlns="http://www.w3.org/2000/svg" viewBox="0 0 33.62 51.55"><defs><style>.cls-1{fill:none;stroke:#f3f5f9;stroke-linecap:square;stroke-linejoin:round;stroke-width:2px;}.cls-2{fill:#f3f5f9;}</style></defs><title>Fichier 1</title><g id="Calque_2" data-name="Calque 2"><g id="Calque_1-2" data-name="Calque 1"><g id="Layer_1" data-name="Layer 1"><path class="cls-1" d="M15.93,50.55C5.2,50.49,1,44.14,1,38.21v-25S1,10.05,4,10.05s2.7,3.17,2.7,3.17V7s.16-2.69,2.64-2.68a2.76,2.76,0,0,1,3,2.49c0,.06,0,.12,0,.18V3.23A2.52,2.52,0,0,1,15.15,1h0A2.53,2.53,0,0,1,18,3.2V7.69s0-2.37,3.16-2.37a2.55,2.55,0,0,1,2.69,2.41v.09c0,.09.08,22.7.08,22.7s1.92-5.06,2.33-6.16c2-5.23,5.5-3.2,6.37-2.53,0,0-1.58,4.66-2.1,6.63a46.15,46.15,0,0,0-.87,9.74S30.3,50.55,15.93,50.55Z"/></g><path class="cls-2" d="M15,34.45a5.75,5.75,0,0,1,3.79,1.38,6.62,6.62,0,0,1,1,1,6.89,6.89,0,0,1-1,1A5.87,5.87,0,0,1,15,39.27a5.76,5.76,0,0,1-3.87-1.37,5.43,5.43,0,0,1-1-1A5.66,5.66,0,0,1,15,34.45m0-.79a6.31,6.31,0,0,0-5.75,3.2A6.44,6.44,0,0,0,15,40.05a7.06,7.06,0,0,0,5.75-3.19A6.88,6.88,0,0,0,15,33.66Z"/><circle class="cls-2" cx="15.02" cy="36.86" r="2.6"/><polygon class="cls-2" points="15.51 41.43 15.02 43.4 14.52 41.43 15.51 41.43"/><polygon class="cls-2" points="14.52 32.29 15.02 30.32 15.51 32.29 14.52 32.29"/><polygon class="cls-2" points="8.39 37.35 5.55 36.86 8.39 36.37 8.39 37.35"/><polygon class="cls-2" points="21.64 36.37 24.48 36.86 21.64 37.35 21.64 36.37"/><polygon class="cls-2" points="19.06 40.21 20.31 42.15 18.37 40.91 19.06 40.21"/><polygon class="cls-2" points="10.97 33.51 9.72 31.57 11.66 32.81 10.97 33.51"/><polygon class="cls-2" points="11.66 40.91 9.72 42.15 10.97 40.21 11.66 40.91"/><polygon class="cls-2" points="18.37 32.81 20.31 31.57 19.06 33.51 18.37 32.81"/></g></g></svg>