<svg xmlns="http://www.w3.org/2000/svg" viewBox="0 0 1157.73 181.5"><defs><style>.cls-1{fill:#f3f5f9;}</style></defs><title>Fichier 3</title><g id="Calque_2" data-name="Calque 2"><g id="Calque_1-2" data-name="Calque 1"><path class="cls-1" d="M116.75,63.75a4.62,4.62,0,0,0,3.75-1.5q-7.75,11.5-21.25,11.5Q86,73.75,71,64l-1.25-.75v69Q72.24,136.51,74,139a103.22,103.22,0,0,0-14.25,29.75A54.68,54.68,0,0,0,57.25,181q-2.25-20.25-17-42,3.24-5.25,4.75-7.5V71.75a34.64,34.64,0,0,1-13,2.5q-16,0-25.75-11.75A25.23,25.23,0,0,1,0,46,22.82,22.82,0,0,1,4.25,32.5H4a9.18,9.18,0,0,1,.75-1q9-11.74,25.75-11.75A48.59,48.59,0,0,1,50,24.25Q56.5,10.26,57.25,0,58,15.75,71.75,38.25,105.5,63.75,116.75,63.75Zm-76-21.25q-16.26-11-22.25-11a9.52,9.52,0,0,0-8,4A21.06,21.06,0,0,0,7.25,46.75a23.21,23.21,0,0,0,5.5,15q9,10.75,23.5,10.75A30.65,30.65,0,0,0,45,71.25V49.5C43.5,46.84,42.08,44.5,40.75,42.5Z"/><path class="cls-1" d="M202,88.5a26.9,26.9,0,0,1-6.75,2.75V116.5a9.24,9.24,0,0,0,7-3.75q-4.5,6.25-7,8v50a9.53,9.53,0,0,0,7-3.5q-8,14.25-21.5,14.25-14.76,0-32-15.5-27.51-25.74-37.5-25.75a3.69,3.69,0,0,0-3.5,1.75,25.13,25.13,0,0,1,13.5-11.75A24.43,24.43,0,0,1,129,129V94.75Q116.75,86,111,86a3.61,3.61,0,0,0-3.25,1.5q7.25-12.75,19-12.75,10.5,0,21.75,8.75,15,13,22,19v-17a71.5,71.5,0,0,1-11-8.75q-27.51-26-37.5-26a3.69,3.69,0,0,0-3.5,1.75q7-12.75,19-12.75,10.5,0,21.75,8.75,30.5,26,35.5,29h.5v.25q6,3.75,10.25,3.75a9.23,9.23,0,0,0,7.5-3.75A27.32,27.32,0,0,1,202,88.5Zm-47.75,28v26.25q14,12.25,16.25,14v-31A50.77,50.77,0,0,1,154.25,116.5Z"/><path class="cls-1" d="M305.25,97.25q2.75,4.75,4.5,7.5A112.94,112.94,0,0,0,295.5,134.5a54.68,54.68,0,0,0-2.5,12.25q-2.25-20.25-17-42c2-3.16,3.41-5.41,4.25-6.75V91.5q-8.25-3.24-17-11V131a60.74,60.74,0,0,0,4.5,7.5,108.88,108.88,0,0,0-14.5,29.75,83.79,83.79,0,0,0-2.5,12.25q-2-20.25-16.75-42c2-3.16,3.41-5.41,4.25-6.75V59.25q-10.5-7-15.75-7a3.61,3.61,0,0,0-3.25,1.5q7.25-13,19-13,10.5,0,21.75,8.75,13.5,11.76,27,23.25,12.5,9.75,19.25,9.75a9.45,9.45,0,0,0,7.5-3.5q-5.76,7.26-8.5,9.25Z"/><path class="cls-1" d="M414.49,167.25q-8,14.25-21.5,14.25-14.75,0-32-15.5-27.5-25.74-37.5-25.75A3.71,3.71,0,0,0,320,142a25.2,25.2,0,0,1,13.5-11.75,24.47,24.47,0,0,1,7.75-1.25V61q-12.24-8.74-18-8.75a3.62,3.62,0,0,0-3.25,1.5q7.26-13,19-13,10.5,0,21.75,8.75,13.5,11.76,27,23.25Q400.25,82.5,407,82.5a9.45,9.45,0,0,0,7.5-3.5,76.32,76.32,0,0,1-7.25,8.25v83.5A9.2,9.2,0,0,0,414.49,167.25Zm-32.25-75.5A50.87,50.87,0,0,1,366,82.5v60.25q14.22,12,16.25,13.75Z"/><path class="cls-1" d="M517.74,63.75a4.59,4.59,0,0,0,3.75-1.5q-7.75,11.5-21.25,11.5Q487,73.75,472,64l-1.25-.75v69c1.67,2.84,3.08,5.09,4.25,6.75a103.22,103.22,0,0,0-14.25,29.75,55.24,55.24,0,0,0-2.5,12.25q-2.25-20.25-17-42,3.25-5.25,4.75-7.5V71.75a34.64,34.64,0,0,1-13,2.5q-16,0-25.75-11.75A25.23,25.23,0,0,1,401,46a22.82,22.82,0,0,1,4.25-13.5H405a9.18,9.18,0,0,1,.75-1q9-11.74,25.75-11.75a48.52,48.52,0,0,1,19.5,4.5q6.5-14,7.25-24.25.75,15.75,14.5,38.25Q506.49,63.75,517.74,63.75Zm-76-21.25q-16.25-11-22.25-11a9.52,9.52,0,0,0-8,4,21.06,21.06,0,0,0-3.25,11.25,23.21,23.21,0,0,0,5.5,15q9,10.75,23.5,10.75A30.6,30.6,0,0,0,446,71.25V49.5C444.49,46.84,443.07,44.5,441.74,42.5Z"/><path class="cls-1" d="M634.74,97.25q2.75,4.75,4.5,7.5A112.94,112.94,0,0,0,625,134.5a54.68,54.68,0,0,0-2.5,12.25q-2.25-20.25-17-42c2-3.16,3.41-5.41,4.25-6.75V91.5q-8.25-3.24-17-11V131a60.74,60.74,0,0,0,4.5,7.5,108.88,108.88,0,0,0-14.5,29.75,83.79,83.79,0,0,0-2.5,12.25q-2-20.25-16.75-42c2-3.16,3.41-5.41,4.25-6.75V59.25q-10.5-7-15.75-7a3.61,3.61,0,0,0-3.25,1.5q7.25-13,19-13,10.5,0,21.75,8.75,13.5,11.76,27,23.25Q629,82.5,635.74,82.5a9.45,9.45,0,0,0,7.5-3.5q-5.76,7.26-8.5,9.25Z"/><path class="cls-1" d="M720.59,138.5q-11.69,0-24.6-10.5v14.75q18.64,16,23.38,19.75,10.93,8.25,17.16,8.25a9.39,9.39,0,0,0,7.46-3.5q-8,14.25-21.5,14.25-14.76,0-32-15.5Q663,140.26,653,140.25a3.69,3.69,0,0,0-3.5,1.75A25.13,25.13,0,0,1,663,130.25a24.43,24.43,0,0,1,7.75-1.25V106.25q-12.25-8.75-18-8.75a3.61,3.61,0,0,0-3.25,1.5A24,24,0,0,1,663,87.5a30.66,30.66,0,0,1,7.75-1.5V61q-12.25-8.74-18-8.75a3.61,3.61,0,0,0-3.25,1.5q7.25-13,19-13,10.5,0,21.75,8.75,13.5,11.76,27,23.25,12.5,9.75,19.25,9.75A9.45,9.45,0,0,0,744,79a48.3,48.3,0,0,1-7,8v41a9.24,9.24,0,0,0,7-3.75q-4.5,6.25-7,8v.25A25.57,25.57,0,0,1,720.59,138.5ZM712.24,114V92q-7.89-2.49-16.25-9.5V99.75Q710,112.26,712.24,114Z"/><path class="cls-1" d="M844.49,88.5a26.9,26.9,0,0,1-6.75,2.75V116.5a9.24,9.24,0,0,0,7-3.75q-4.5,6.25-7,8v50a9.53,9.53,0,0,0,7-3.5q-8,14.25-21.5,14.25-14.76,0-32-15.5-27.51-25.74-37.5-25.75a3.69,3.69,0,0,0-3.5,1.75,25.13,25.13,0,0,1,13.5-11.75,24.43,24.43,0,0,1,7.75-1.25V94.75Q759.24,86,753.49,86a3.61,3.61,0,0,0-3.25,1.5q7.25-12.75,19-12.75,10.5,0,21.75,8.75,15,13,22,19v-17a71.5,71.5,0,0,1-11-8.75q-27.51-26-37.5-26A3.69,3.69,0,0,0,761,52.5q7-12.75,19-12.75,10.5,0,21.75,8.75,30.5,26,35.5,29h.5v.25q6,3.75,10.25,3.75a9.23,9.23,0,0,0,7.5-3.75A27.32,27.32,0,0,1,844.49,88.5Zm-47.75,28v26.25q14,12.25,16.25,14v-31A50.56,50.56,0,0,1,796.74,116.5Z"/><path class="cls-1" d="M956.23,167.25q-8,14.25-21.5,14.25-14.75,0-32-15.5-27.5-25.74-37.5-25.75a3.7,3.7,0,0,0-3.5,1.75,25.2,25.2,0,0,1,13.5-11.75A24.43,24.43,0,0,1,883,129V61q-12.26-8.74-18-8.75a3.62,3.62,0,0,0-3.25,1.5q7.24-13,19-13,10.5,0,21.75,8.75Q916.73,62,923.23,67.75V49.5a44.59,44.59,0,0,0-4.5-7.5,108.74,108.74,0,0,0,14.5-29.75A93.27,93.27,0,0,0,935.73,0q2,20,16.75,42-3,4.76-4.25,6.75V82.5a9.46,9.46,0,0,0,8-3.5,47.83,47.83,0,0,1-7,8v83.75A9.52,9.52,0,0,0,956.23,167.25ZM924.48,92q-7.87-2.49-16.25-9.5v60.25q14,12.25,16.25,14Z"/><path class="cls-1" d="M1033.58,138.5q-11.68,0-24.6-10.5v14.75q18.64,16,23.38,19.75,10.94,8.25,17.16,8.25a9.39,9.39,0,0,0,7.46-3.5q-8,14.25-21.5,14.25-14.76,0-32-15.5Q976,140.26,966,140.25a3.69,3.69,0,0,0-3.5,1.75A25.13,25.13,0,0,1,976,130.25a24.43,24.43,0,0,1,7.75-1.25V106.25q-12.26-8.75-18-8.75a3.61,3.61,0,0,0-3.25,1.5A24,24,0,0,1,976,87.5a30.66,30.66,0,0,1,7.75-1.5V61q-12.26-8.74-18-8.75a3.61,3.61,0,0,0-3.25,1.5q7.24-13,19-13,10.5,0,21.75,8.75,13.5,11.76,27,23.25,12.49,9.75,19.25,9.75A9.45,9.45,0,0,0,1057,79a48.3,48.3,0,0,1-7,8v41a9.24,9.24,0,0,0,7-3.75q-4.5,6.25-7,8v.25A25.57,25.57,0,0,1,1033.58,138.5Zm-8.35-24.5V92q-7.87-2.49-16.25-9.5V99.75Q1023,112.26,1025.23,114Z"/><path class="cls-1" d="M1149.23,97.25q2.74,4.75,4.5,7.5a112.94,112.94,0,0,0-14.25,29.75,54.68,54.68,0,0,0-2.5,12.25q-2.25-20.25-17-42c2-3.16,3.41-5.41,4.25-6.75V91.5q-8.25-3.24-17-11V131a60.74,60.74,0,0,0,4.5,7.5,108.88,108.88,0,0,0-14.5,29.75,83.79,83.79,0,0,0-2.5,12.25q-2-20.25-16.75-42c2-3.16,3.41-5.41,4.25-6.75V59.25q-10.5-7-15.75-7a3.61,3.61,0,0,0-3.25,1.5q7.24-13,19-13,10.5,0,21.75,8.75,13.5,11.76,27,23.25,12.49,9.75,19.25,9.75a9.45,9.45,0,0,0,7.5-3.5q-5.76,7.26-8.5,9.25Z"/></g></g></svg>