<svg xmlns="http://www.w3.org/2000/svg" viewBox="0 0 62.2 281.09"><defs><style>.cls-1{fill:#f3f5f9;}</style></defs><title>Fichier 1</title><g id="Calque_2" data-name="Calque 2"><g id="Layer_1" data-name="Layer 1"><path class="cls-1" d="M37.7,281.09a6.45,6.45,0,0,1-2.56-.53C27.63,277.33,23.54,257.62,23,222c-.64-40.19.5-84.47.69-91.48-2.95-5.76-8-13.92-10.79-15.52a21.38,21.38,0,0,0-9.11-2.5,3.75,3.75,0,0,1-2-6.92c.44-.28,11-6.73,21-.42l.18.11c-.54-20-2.69-65.45-5.69-70.91-6.07-7.2.83-20.32,1.64-21.8a3.67,3.67,0,0,1,.77-1c1.6-1.44,16-14.08,27.48-11.1A20.38,20.38,0,0,1,60.25,10.72c1.93,3.7,2.47,7.6,1.42,10.45C60.44,24.88,57,61.25,56.6,90.83c-.18,15.06-1.7,60-4,101.81-4.45,81.35-7.93,84.55-9.8,86.27A7.6,7.6,0,0,1,37.7,281.09ZM22.09,113.76A92.26,92.26,0,0,1,30.77,128a3.64,3.64,0,0,1,.39,1.77c0,.48-1.4,48.69-.71,92.09.59,36.27,5,48.84,7.2,51.41,5.19-13,11-143.72,11.46-182.52.34-29.26,3.79-67.44,5.53-72.15a7,7,0,0,0-1-4.39A12.88,12.88,0,0,0,45.2,7.7c-6.19-1.6-16.34,5.74-20.09,9-2.16,4.22-4,10.71-2.17,12.85,1.34,1.53,3.83,4.39,6,42.46.94,16.55,1.43,33,1.54,38.87a40.41,40.41,0,0,1,5.07,5.1,3.74,3.74,0,1,1-5.9,4.61A42.44,42.44,0,0,0,22.09,113.76Z"/><path class="cls-1" d="M28.46,107.32h0a1.87,1.87,0,0,1-1.83-1.91,87,87,0,0,1,2.69-17.49c2.63-10.77,6.9-43.55,5.4-50.1C28.4,40.55,20,34.23,19,33.47a1.88,1.88,0,1,1,2.29-3c2.27,1.76,8.93,5.82,12.46,3.6a2.61,2.61,0,0,1,3,0c1.16.83,3.31,2.37.73,25.48-1.34,12-3.4,24.5-4.55,29.21a87.18,87.18,0,0,0-2.59,16.68A1.87,1.87,0,0,1,28.46,107.32Z"/><path class="cls-1" d="M36.69,263.73A3.35,3.35,0,0,1,33.87,262c-2.86-4.27-2-9.21-.84-16a96.51,96.51,0,0,0,1.47-27.53c-1.2-12.52-3.5-26.48-5.34-37.7S25.89,160.85,26,156.93a1.89,1.89,0,0,1,1.93-1.81,1.87,1.87,0,0,1,1.82,1.93c-.11,3.55,1.37,12.58,3.09,23C34.71,191.36,37,205.39,38.23,218a99.61,99.61,0,0,1-1.51,28.53c-1,5.95-1.71,10,0,13,3-4.7,6.38-30.62,5.74-40.91-.34-5.52-2.89-23-5.35-39.81-2.7-18.4-5.24-35.78-5.48-41.09-.37-8.1,5.76-46.64,9.82-72.14,1.15-7.2,2.14-13.42,2.68-17.06,2.21-15-4.51-23.83-4.57-23.92a1.87,1.87,0,1,1,2.95-2.3c.32.41,7.77,10.22,5.33,26.77-.55,3.65-1.54,9.88-2.69,17.1C41.4,90,35.06,129.83,35.41,137.54c.24,5.12,2.88,23.21,5.44,40.71,2.59,17.72,5,34.45,5.39,40.13.43,6.88-2.07,43-8.63,45.2A2.7,2.7,0,0,1,36.69,263.73Z"/><path class="cls-1" d="M46.49,178.79a1.89,1.89,0,0,1-1.84-1.49c-.06-.34-6.81-33.7-3.52-60.75.56-4.56,1.31-10.17,2.17-16.67,3.66-27.43,10.47-78.51,5.56-84-3.59-4-13.12-1.64-17.55,1.88-.86.69-2.77,2.41-1.9,3.64a4.83,4.83,0,0,0,.86,1A11.74,11.74,0,0,0,31.52,21c1.56-1.92,3.91-4.82,8.18-5.15A1.87,1.87,0,1,1,40,19.55c-2.66.21-4.13,2-5.55,3.78-1.17,1.45-2.4,2.94-4.26,2.88s-3-1.54-3.82-2.66c-1.88-2.66-.9-5.93,2.63-8.74,5.72-4.55,17.4-7.37,22.68-1.44,5.6,6.28,1.21,43.12-4.64,87-.87,6.48-1.62,12.08-2.17,16.63-3.22,26.44,3.41,59.21,3.47,59.53a1.86,1.86,0,0,1-1.45,2.21A1.69,1.69,0,0,1,46.49,178.79Z"/></g></g></svg>